<svg xmlns="http://www.w3.org/2000/svg" width="640" height="360" viewBox="0 0 640 360">
  <rect width="640" height="360" fill="#f7f9ff" />
  <g opacity="0.08">
    <rect x="60" y="170" width="120" height="110" rx="16" fill="#182f6f" />
    <rect x="220" y="120" width="110" height="160" rx="12" fill="#39559a" />
    <rect x="360" y="150" width="150" height="130" rx="16" fill="#ef3b54" />
    <rect x="460" y="200" width="120" height="80" rx="12" fill="#182f6f" />
  </g>
  <g>
    <rect x="90" y="190" width="120" height="110" rx="16" fill="#0f2f6b" />
    <rect x="240" y="160" width="130" height="140" rx="16" fill="#5166a1" />
    <rect x="400" y="130" width="160" height="170" rx="18" fill="#ef3b54" />
    <rect x="270" y="190" width="60" height="60" fill="#ffffff" opacity="0.7" />
    <rect x="125" y="220" width="50" height="40" fill="#ffffff" opacity="0.4" />
    <rect x="460" y="170" width="40" height="80" fill="#ffffff" opacity="0.3" />
    <rect x="430" y="200" width="30" height="50" fill="#ffffff" opacity="0.3" />
    <rect x="510" y="200" width="30" height="50" fill="#ffffff" opacity="0.3" />
  </g>
  <g>
    <rect x="72" y="220" width="30" height="60" rx="8" fill="#273d74" />
    <rect x="206" y="210" width="26" height="70" rx="8" fill="#273d74" />
    <rect x="340" y="230" width="30" height="50" rx="8" fill="#273d74" />
    <rect x="502" y="230" width="26" height="50" rx="8" fill="#273d74" />
  </g>
  <g fill="#d5def3">
    <circle cx="520" cy="90" r="26" />
    <circle cx="190" cy="80" r="18" />
    <circle cx="80" cy="120" r="12" />
    <rect x="60" y="320" width="520" height="20" fill="#e4ebf9" />
  </g>
</svg>

