<svg xmlns="http://www.w3.org/2000/svg" width="640" height="360" viewBox="0 0 640 360">
  <rect width="640" height="360" fill="#f5f7fb" />
  <g opacity="0.08">
    <rect x="60" y="140" width="60" height="120" rx="8" fill="#0f2f6b" />
    <rect x="140" y="100" width="80" height="160" rx="12" fill="#0f2f6b" />
    <rect x="240" y="80" width="100" height="180" rx="12" fill="#ef3b54" />
    <rect x="360" y="70" width="90" height="190" rx="12" fill="#192c4c" />
    <rect x="470" y="110" width="110" height="150" rx="16" fill="#0f2f6b" />
    <rect x="80" y="200" width="120" height="60" rx="12" fill="#fff" />
  </g>
  <g>
    <rect x="80" y="160" width="90" height="160" rx="8" fill="#223a72" />
    <rect x="90" y="190" width="70" height="60" fill="#ffffff" opacity="0.9" />
    <rect x="210" y="120" width="120" height="200" rx="12" fill="#0f2f6b" />
    <rect x="330" y="140" width="100" height="180" rx="10" fill="#5166a1" />
    <rect x="440" y="100" width="120" height="220" rx="12" fill="#ef3b54" />
    <rect x="230" y="140" width="20" height="160" fill="#ffffff" opacity="0.3" />
    <rect x="470" y="130" width="20" height="130" fill="#ffffff" opacity="0.3" />
    <rect x="360" y="160" width="20" height="120" fill="#ffffff" opacity="0.3" />
    <rect x="265" y="180" width="40" height="40" fill="#ffffff" opacity="0.7" />
    <rect x="120" y="220" width="20" height="60" fill="#ffffff" opacity="0.3" />
  </g>
  <g fill="#c6d0e8">
    <circle cx="130" cy="120" r="18" />
    <circle cx="520" cy="70" r="28" />
    <circle cx="420" cy="60" r="14" />
    <rect x="60" y="320" width="520" height="20" fill="#e4ebf9" />
  </g>
</svg>

